<svg xmlns="http://www.w3.org/2000/svg" width="800" height="800" viewBox="0 0 800 800"><rect width="800" height="800" fill="#f7f3e8"/><rect x="130" y="110" width="540" height="580" rx="28" fill="#fff" stroke="#313511" stroke-width="12"/><path d="M430 135c55 55 45 135 15 180-25 38-15 80 18 120 25 30 18 90-25 128-40 36-80 70-90 105-50-50-35-115-5-165 35-58 20-98-5-135-38-55-20-115 30-158 35-30 42-50 62-75z" fill="#007a3d"/><path d="M210 170h140v470H210z" fill="#000"/><path d="M210 170h140v156H210z" fill="#000"/><path d="M210 326h140v157H210z" fill="#fff"/><path d="M210 483h140v157H210z" fill="#007a3d"/><path d="M210 170l110 235-110 235z" fill="#ce1126"/><text x="400" y="742" text-anchor="middle" font-family="Arial" font-size="38" fill="#313511" font-weight="700">Palestine Map</text></svg>