<svg xmlns="http://www.w3.org/2000/svg" width="800" height="800" viewBox="0 0 800 800"><rect width="800" height="800" fill="#f7f3e8"/><rect x="90" y="120" width="620" height="560" rx="36" fill="#ffffff" stroke="#1f2933" stroke-width="10"/><path d="M140 180h520M140 260h520M140 340h520M140 420h520M140 500h520M140 580h520" stroke="#111827" stroke-width="12"/><path d="M180 150v500M260 150v500M340 150v500M420 150v500M500 150v500M580 150v500" stroke="#111827" stroke-width="10" opacity=".85"/><path d="M140 650c90-80 180-80 260 0 80-80 170-80 260 0" fill="none" stroke="#007a3d" stroke-width="24"/><circle cx="400" cy="400" r="82" fill="#ce1126" opacity=".95"/><text x="400" y="742" text-anchor="middle" font-family="Arial" font-size="42" fill="#313511" font-weight="700">Keffiyeh</text></svg>